# xmcd
#
# Track frame offsets:
#	150
#	19807
#	31424
#	42577
#	63952
#	78923
#	93393
#	102441
#	116290
#	131942
#	143560
#	158501
#	175885
#	195257
#
# Disc length: 2795 seconds
#
# Revision: 1
# Processed by: cddbd v1.5.1PL2 Copyright (c) Steve Scherf et al.
# Submitted via: audiograbber 1.83.01
#
DISCID=af0ae90e
DTITLE=Justin Trevino - Before You Say Amen
DYEAR=2006
DGENRE=Country
TTITLE0=Heart That Will Never Break Again
TTITLE1=Where We'll Never Grow Old
TTITLE2=Where The Roses Never Fade
TTITLE3=When They Ring Those Golden Bells
TTITLE4=I Saw A Man
TTITLE5=In The Garden
TTITLE6=If I Could Hear My Mother Pray Again
TTITLE7=The Old Rugged Cross
TTITLE8=Family Bible
TTITLE9=Crumbs From The Table
TTITLE10=Life's Railway To Heaven
TTITLE11=Remind Me My Dear Lord
TTITLE12=How Great Thou Art
TTITLE13=Before You Say Amen
EXTD=
EXTT0=
EXTT1=
EXTT2=
EXTT3=
EXTT4=
EXTT5=
EXTT6=
EXTT7=
EXTT8=
EXTT9=
EXTT10=
EXTT11=Vocals by Mona McCall
EXTT12=
EXTT13=
PLAYORDER=
